<svg height="12" viewBox="0 0 14 12" width="14" xmlns="http://www.w3.org/2000/svg"><path d="m6.6882778 11.4877844c-.19043465 0-.37403164-.0665947-.51711279-.1875685-.54038132-.4561147-1.06137221-.8847442-1.52102802-1.2628367l-.00234725-.0019702c-1.34763656-1.10856552-2.51136994-2.06591374-3.32107448-3.00897757-.90512596-1.05428487-1.32671526-2.05389511-1.32671526-3.14591042 0-1.06098377.37688918-2.03980778 1.06116811-2.75629198.69244331-.72495632 1.64257553-1.12422903 2.67567851-1.12422903.77214829 0 1.47928752.23564282 2.10172107.70032808.31412536.23455917.59885888.52162573.84971011.85647103.2509533-.3348453.53558475-.62191186.84981216-.85647103.62243355-.46468526 1.3295728-.70032808 2.10172107-.70032808 1.03300097 0 1.98323517.39927271 2.67567857 1.12422903.6842789.7164842 1.061066 1.69530821 1.061066 2.75629198 0 1.09201531-.4214872 2.09162555-1.3266132 3.14581191-.8097045.94316234-1.9733359 1.90041205-3.32076829 3.00887898-.46047225.3786836-.98227959.8080027-1.52388559 1.265201-.14297908.1207768-.32667811.1873715-.51701072.1873715zm-2.95143118-10.73140247c-.81164357 0-1.55725756.31267988-2.09968.88050815-.55048477.57639889-.85369024 1.37317109-.85369024 2.24363093 0 .9184356.35362067 1.73983603 1.14648611 2.66329579.76633114.89262526 1.90618366 1.83027088 3.22595918 2.91598136l.00244932.00197029c.46139074.37957013.98442273.80987445 1.5287842 1.26933845.54762725-.4603507 1.07147566-.89134452 1.53378489-1.27150575 1.31967347-1.08571048 2.45942392-2.02315909 3.22575512-2.91578435.7927634-.92345976 1.146384-1.74486019 1.146384-2.66329579 0-.87045984-.3032055-1.66723204-.8536902-2.24363093-.5423204-.56782827-1.2880364-.88050815-2.09957797-.88050815-.59457253 0-1.14046486.18244584-1.6224707.54221492-.42954957.32075795-.72877491.72623695-.90420747 1.00995406-.09021664.1458976-.24901425.23298298-.42485506.23298298s-.33463842-.08708538-.42485505-.23298298c-.17533052-.28371711-.47455584-.68919611-.90420748-1.00995406-.48200584-.35976908-1.02789817-.54221492-1.62236865-.54221492z" fill="#e02121" transform="translate(.380174)"/></svg>